<svg id="visual" viewBox="0 0 900 600" width="900" height="600" xmlns="http://www.w3.org/2000/svg" xmlns:xlink="http://www.w3.org/1999/xlink" version="1.1"><rect x="0" y="0" width="900" height="600" fill="#001220"></rect><defs><linearGradient id="grad1_0" x1="33.3%" y1="0%" x2="100%" y2="100%"><stop offset="20%" stop-color="#001220" stop-opacity="1"></stop><stop offset="80%" stop-color="#001220" stop-opacity="1"></stop></linearGradient></defs><defs><linearGradient id="grad2_0" x1="0%" y1="0%" x2="66.7%" y2="100%"><stop offset="20%" stop-color="#001220" stop-opacity="1"></stop><stop offset="80%" stop-color="#001220" stop-opacity="1"></stop></linearGradient></defs><g transform="translate(900, 0)"><path d="M0 378.6C-31.6 354.2 -63.2 329.9 -105.4 324.3C-147.5 318.8 -200.2 332.1 -222.5 306.3C-244.8 280.5 -236.7 215.7 -241.1 175.2C-245.4 134.6 -262.2 118.5 -287.2 93.3C-312.2 68.2 -345.4 34.1 -378.6 0L0 0Z" fill="#FBAE3C"></path></g><g transform="translate(0, 600)"><path d="M0 -378.6C36 -350.7 72 -322.7 96.1 -295.8C120.2 -268.8 132.4 -242.9 171.6 -236.2C210.9 -229.6 277.2 -242.3 306.3 -222.5C335.3 -202.8 327 -150.6 332.9 -108.2C338.7 -65.7 358.6 -32.8 378.6 0L0 0Z" fill="#FBAE3C"></path></g></svg>