<svg id="visual" viewBox="0 0 900 600" width="900" height="600" xmlns="http://www.w3.org/2000/svg" xmlns:xlink="http://www.w3.org/1999/xlink" version="1.1"><g transform="translate(458.3812913867747 307.3241608918374)"><path d="M76.5 -105C94.3 -92.4 100.4 -63.5 101.1 -38.3C101.8 -13.1 97 8.4 89.3 28.1C81.7 47.8 71.1 65.5 55.7 78C40.4 90.6 20.2 97.8 -0.8 98.9C-21.7 99.9 -43.5 94.9 -58.4 82.2C-73.2 69.5 -81.2 49.2 -93 26.9C-104.8 4.6 -120.4 -19.8 -117.6 -41.2C-114.8 -62.6 -93.5 -81.1 -70.9 -92C-48.2 -103 -24.1 -106.5 2.6 -110.1C29.4 -113.8 58.8 -117.6 76.5 -105" fill="#FCAF3C"></path></g></svg>