<svg id="visual" viewBox="0 0 900 600" width="900" height="600" xmlns="http://www.w3.org/2000/svg" xmlns:xlink="http://www.w3.org/1999/xlink" version="1.1"><rect x="0" y="0" width="900" height="600" fill="#001220"></rect><defs><linearGradient id="grad1_0" x1="33.3%" y1="0%" x2="100%" y2="100%"><stop offset="20%" stop-color="#001220" stop-opacity="1"></stop><stop offset="80%" stop-color="#001220" stop-opacity="1"></stop></linearGradient></defs><defs><linearGradient id="grad2_0" x1="0%" y1="0%" x2="66.7%" y2="100%"><stop offset="20%" stop-color="#001220" stop-opacity="1"></stop><stop offset="80%" stop-color="#001220" stop-opacity="1"></stop></linearGradient></defs><g transform="translate(900, 0)"><path d="M0 243.4C-50.1 241.4 -100.2 239.3 -121.7 210.8C-143.2 182.2 -136 127.1 -151.6 87.5C-167.1 47.9 -205.2 24 -243.4 0L0 0Z" fill="#FBAE3C"></path></g><g transform="translate(0, 600)"><path d="M0 -243.4C46.8 -239.4 93.5 -235.5 121.7 -210.8C149.9 -186.1 159.5 -140.6 176.7 -102C193.9 -63.4 218.6 -31.7 243.4 0L0 0Z" fill="#FBAE3C"></path></g></svg>