<svg id="visual" viewBox="0 0 900 600" width="900" height="600" xmlns="http://www.w3.org/2000/svg" xmlns:xlink="http://www.w3.org/1999/xlink" version="1.1"><g transform="translate(485.67839317868203 285.082886221945)"><path d="M113.5 -153.4C145.8 -132.7 169.9 -97.8 185.3 -58.3C200.7 -18.9 207.3 25.3 195.5 64C183.6 102.7 153.2 135.9 117.6 169.6C81.9 203.4 40.9 237.7 1.4 235.8C-38.2 233.9 -76.4 195.8 -121.4 165.1C-166.4 134.4 -218.3 111.1 -246.7 69.3C-275.2 27.6 -280.2 -32.5 -262.9 -85.2C-245.5 -137.9 -205.6 -183 -158.1 -198.8C-110.5 -214.6 -55.3 -201.1 -7.3 -190.9C40.6 -180.8 81.1 -174.1 113.5 -153.4" fill="#FCAF3C"></path></g></svg>