<svg id="visual" viewBox="0 0 900 600" width="900" height="600" xmlns="http://www.w3.org/2000/svg" xmlns:xlink="http://www.w3.org/1999/xlink" version="1.1"><rect x="0" y="0" width="900" height="600" fill="#001220"></rect><path d="M0 515L30 515.8C60 516.7 120 518.3 180 523.8C240 529.3 300 538.7 360 539C420 539.3 480 530.7 540 529C600 527.3 660 532.7 720 537.8C780 543 840 548 870 550.5L900 553L900 601L870 601C840 601 780 601 720 601C660 601 600 601 540 601C480 601 420 601 360 601C300 601 240 601 180 601C120 601 60 601 30 601L0 601Z" fill="#FBAE3C" stroke-linecap="round" stroke-linejoin="miter"></path></svg>